<svg width="121" height="56" viewBox="0 0 121 56" fill="none" xmlns="http://www.w3.org/2000/svg">
<path fill-rule="evenodd" clip-rule="evenodd" d="M49.6722 29.4413C51.4531 29.4408 53.1942 29.9766 54.6752 30.9809C56.1562 31.9851 57.3106 33.4127 57.9925 35.0831C58.6743 36.7536 58.8529 38.5918 58.5058 40.3653C58.1586 42.1388 57.3013 43.768 56.0421 45.0467C54.783 46.3255 53.1786 47.1964 51.4319 47.5494C49.6853 47.9023 47.8747 47.7214 46.2293 47.0295C44.5839 46.3377 43.1776 45.1659 42.1881 43.6625C41.1986 42.159 40.6705 40.3914 40.6705 38.5832C40.6705 36.1591 41.6188 33.8341 43.3069 32.1198C44.9949 30.4054 47.2846 29.4419 49.6722 29.4413ZM105.06 49.2587L99.1791 56L79.6747 38.4722L79.2767 53.9088L70.4147 53.6725L71.6667 4.99743L80.5288 5.23371L80.0819 22.6103L101.783 7.84941L106.717 15.3303L84.2779 30.5944L105.06 49.2587ZM110.543 17.5372L119.41 17.5726L119.305 53.7481L110.438 53.7127L110.543 17.5372ZM52.9861 6.39152L54.0334 15.3326L28.3735 18.4445L29.1182 53.363L20.2468 53.5568L19.5277 19.5173L1.04958 21.7573L0 12.8185L19.3345 10.4746L19.2065 4.48941L28.0709 4.29565L28.1803 9.40654L52.9861 6.39152ZM49.6722 21.2776C53.0415 21.2771 56.3353 22.2911 59.1371 24.1914C61.9388 26.0916 64.1226 28.7928 65.4123 31.9532C66.7021 35.1136 67.0397 38.5914 66.3827 41.9467C65.7256 45.302 64.1034 48.3841 61.7211 50.8032C59.3387 53.2224 56.3033 54.8699 52.9988 55.5375C49.6942 56.2051 46.2688 55.8627 43.1559 54.5536C40.043 53.2446 37.3823 51.0277 35.5104 48.1833C33.6384 45.3389 32.6393 41.9948 32.6393 38.5738C32.6411 33.9884 34.4365 29.5915 37.6305 26.3498C40.8246 23.1081 45.156 21.287 49.6722 21.287V21.2776Z" fill="white"/>
<path fill-rule="evenodd" clip-rule="evenodd" d="M115.009 0C116.055 0 117.077 0.314853 117.946 0.904745C118.816 1.49464 119.494 2.33307 119.894 3.31403C120.294 4.29498 120.399 5.37439 120.195 6.41577C119.991 7.45714 119.487 8.41371 118.748 9.1645C118.008 9.91529 117.066 10.4266 116.04 10.6337C115.015 10.8409 113.952 10.7346 112.985 10.3282C112.019 9.92191 111.194 9.23382 110.613 8.35098C110.032 7.46815 109.721 6.43022 109.721 5.36844C109.721 3.94464 110.279 2.57916 111.27 1.57238C112.262 0.565602 113.607 0 115.009 0Z" fill="#E71D8C"/>
</svg>
