<svg width="33" height="32" viewBox="0 0 33 32" fill="none" xmlns="http://www.w3.org/2000/svg">
<rect x="2.5" y="2" width="28" height="28" rx="6" fill="url(#paint0_radial_92_6693)"/>
<rect x="2.5" y="2" width="28" height="28" rx="6" fill="url(#paint1_radial_92_6693)"/>
<rect x="2.5" y="2" width="28" height="28" rx="6" fill="url(#paint2_radial_92_6693)"/>
<path d="M23.5 10.5C23.5 11.3284 22.8284 12 22 12C21.1716 12 20.5 11.3284 20.5 10.5C20.5 9.67157 21.1716 9 22 9C22.8284 9 23.5 9.67157 23.5 10.5Z" fill="white"/>
<path fill-rule="evenodd" clip-rule="evenodd" d="M16.5 21C19.2614 21 21.5 18.7614 21.5 16C21.5 13.2386 19.2614 11 16.5 11C13.7386 11 11.5 13.2386 11.5 16C11.5 18.7614 13.7386 21 16.5 21ZM16.5 19C18.1569 19 19.5 17.6569 19.5 16C19.5 14.3431 18.1569 13 16.5 13C14.8431 13 13.5 14.3431 13.5 16C13.5 17.6569 14.8431 19 16.5 19Z" fill="white"/>
<path fill-rule="evenodd" clip-rule="evenodd" d="M6.5 15.6C6.5 12.2397 6.5 10.5595 7.15396 9.27606C7.7292 8.14708 8.64708 7.2292 9.77606 6.65396C11.0595 6 12.7397 6 16.1 6H16.9C20.2603 6 21.9405 6 23.2239 6.65396C24.3529 7.2292 25.2708 8.14708 25.846 9.27606C26.5 10.5595 26.5 12.2397 26.5 15.6V16.4C26.5 19.7603 26.5 21.4405 25.846 22.7239C25.2708 23.8529 24.3529 24.7708 23.2239 25.346C21.9405 26 20.2603 26 16.9 26H16.1C12.7397 26 11.0595 26 9.77606 25.346C8.64708 24.7708 7.7292 23.8529 7.15396 22.7239C6.5 21.4405 6.5 19.7603 6.5 16.4V15.6ZM16.1 8H16.9C18.6132 8 19.7777 8.00156 20.6779 8.0751C21.5548 8.14674 22.0032 8.27659 22.316 8.43597C23.0686 8.81947 23.6805 9.43139 24.064 10.184C24.2234 10.4968 24.3533 10.9452 24.4249 11.8221C24.4984 12.7223 24.5 13.8868 24.5 15.6V16.4C24.5 18.1132 24.4984 19.2777 24.4249 20.1779C24.3533 21.0548 24.2234 21.5032 24.064 21.816C23.6805 22.5686 23.0686 23.1805 22.316 23.564C22.0032 23.7234 21.5548 23.8533 20.6779 23.9249C19.7777 23.9984 18.6132 24 16.9 24H16.1C14.3868 24 13.2223 23.9984 12.3221 23.9249C11.4452 23.8533 10.9968 23.7234 10.684 23.564C9.93139 23.1805 9.31947 22.5686 8.93597 21.816C8.77659 21.5032 8.64674 21.0548 8.5751 20.1779C8.50156 19.2777 8.5 18.1132 8.5 16.4V15.6C8.5 13.8868 8.50156 12.7223 8.5751 11.8221C8.64674 10.9452 8.77659 10.4968 8.93597 10.184C9.31947 9.43139 9.93139 8.81947 10.684 8.43597C10.9968 8.27659 11.4452 8.14674 12.3221 8.0751C13.2223 8.00156 14.3868 8 16.1 8Z" fill="white"/>
<defs>
<radialGradient id="paint0_radial_92_6693" cx="0" cy="0" r="1" gradientUnits="userSpaceOnUse" gradientTransform="translate(12.5 23) rotate(-55.3758) scale(25.5196)">
<stop stop-color="#B13589"/>
<stop offset="0.79309" stop-color="#C62F94"/>
<stop offset="1" stop-color="#8A3AC8"/>
</radialGradient>
<radialGradient id="paint1_radial_92_6693" cx="0" cy="0" r="1" gradientUnits="userSpaceOnUse" gradientTransform="translate(11.5 31) rotate(-65.1363) scale(22.5942)">
<stop stop-color="#E0E8B7"/>
<stop offset="0.444662" stop-color="#FB8A2E"/>
<stop offset="0.71474" stop-color="#E2425C"/>
<stop offset="1" stop-color="#E2425C" stop-opacity="0"/>
</radialGradient>
<radialGradient id="paint2_radial_92_6693" cx="0" cy="0" r="1" gradientUnits="userSpaceOnUse" gradientTransform="translate(1 3) rotate(-8.1301) scale(38.8909 8.31836)">
<stop offset="0.156701" stop-color="#406ADC"/>
<stop offset="0.467799" stop-color="#6A45BE"/>
<stop offset="1" stop-color="#6A45BE" stop-opacity="0"/>
</radialGradient>
</defs>
</svg>
