<svg width="33" height="32" viewBox="0 0 33 32" fill="none" xmlns="http://www.w3.org/2000/svg">
<rect x="2.5" y="2" width="28" height="28" rx="14" fill="#1275B1"/>
<path d="M13.1186 9.69215C13.1186 10.6267 12.3085 11.3843 11.3093 11.3843C10.31 11.3843 9.5 10.6267 9.5 9.69215C9.5 8.7576 10.31 8 11.3093 8C12.3085 8 13.1186 8.7576 13.1186 9.69215Z" fill="white"/>
<path d="M9.74742 12.6281H12.8402V22H9.74742V12.6281Z" fill="white"/>
<path d="M17.8196 12.6281H14.7268V22H17.8196C17.8196 22 17.8196 19.0496 17.8196 17.2049C17.8196 16.0976 18.1977 14.9855 19.7062 14.9855C21.411 14.9855 21.4008 16.4345 21.3928 17.5571C21.3824 19.0244 21.4072 20.5219 21.4072 22H24.5V17.0537C24.4738 13.8954 23.6508 12.4401 20.9433 12.4401C19.3354 12.4401 18.3387 13.1701 17.8196 13.8305V12.6281Z" fill="white"/>
</svg>
