<svg xmlns="http://www.w3.org/2000/svg" version="1.1" xmlns:xlink="http://www.w3.org/1999/xlink" xmlns:svgjs="http://svgjs.dev/svgjs" width="48" height="48"><svg width="48" height="48" viewBox="0 0 48 48" fill="none" xmlns="http://www.w3.org/2000/svg">
<path d="M27.1084 33.9062C24.2448 32.8102 21.2994 32.6416 18.5995 33.4004C16.7177 33.9062 14.9177 34.9179 13.2814 36.1826L12.1359 37.1943L11.8087 37.5315L12.545 38.206C12.6268 38.206 12.6268 38.2903 12.7087 38.3746C12.8723 38.5432 13.0359 38.6276 13.2814 38.7962L13.7723 39.1334L14.2632 38.7119C14.345 38.6275 14.5086 38.4589 14.6723 38.3746C16.145 37.11 17.7813 36.2669 19.4994 35.8453C21.7085 35.2552 24.0812 35.3395 26.4539 36.2669C28.4175 37.0257 32.4265 37.9531 37.2537 35.8453L37.4173 35.761L37.6628 35.5081C37.6628 35.4238 37.7446 35.4238 37.8264 35.3395C38.2355 34.8336 38.6446 34.3278 38.9719 33.7376L40.6082 31.124L37.99 32.6416C34.1447 34.8336 30.6265 35.2552 27.1084 33.9062Z" fill="#181D27" data-darkreader-inline-fill="" style="--darkreader-inline-fill: #d4d0cb;"></path>
<path d="M15.8998 24.8011C18.1089 24.2109 20.4816 24.2952 22.8543 25.2226C25.4724 26.2343 32.1814 27.6676 39.7085 20.6699L41.3449 18.9837L41.1812 18.5622C41.0994 18.225 40.9358 17.8034 40.7721 17.3819L40.363 16.2015L39.5449 17.0446C39.4631 17.2132 39.2994 17.2975 39.1358 17.4662C35.5359 21.2601 29.9723 25.1383 23.5906 22.7777C20.727 21.6816 17.7816 21.513 15.0817 22.2718C12.4635 23.0306 10.1727 24.4638 8.04542 26.4873V26.4029L6.81817 27.7519C6.81817 27.8362 6.73637 27.8362 6.65455 27.9205L6.40908 28.1735L6.49091 28.5107C6.57272 28.9322 6.73635 29.3538 6.81817 29.7753L7.30907 31.1243L8.12724 30.0283C8.20906 29.8596 8.37269 29.7753 8.4545 29.6067C10.1727 28.0048 12.5453 25.7285 15.8998 24.8011Z" fill="#181D27" data-darkreader-inline-fill="" style="--darkreader-inline-fill: #13171f;"></path>
<path d="M7.96362 23.2833C9.84541 21.2599 11.9726 19.9952 14.2635 19.3208C16.4726 18.7306 18.8452 18.8149 21.2179 19.7423C28.5814 22.5245 34.9632 17.9718 37.7449 15.5268L38.8085 14.4308L39.2176 14.0936L38.8904 13.5877C38.6449 13.3348 38.4813 12.9976 38.2358 12.6603L37.7449 11.9858L37.1722 12.576C37.0904 12.6603 36.9267 12.8289 36.8449 12.9132C33.4086 16.2856 28.0905 19.7423 22.0361 17.3817C19.1725 16.2856 16.2271 16.117 13.5272 16.8758C11.809 17.3817 10.1727 18.2247 8.53632 19.3208L6.81817 20.754C6.65453 20.9226 6.57272 21.007 6.40908 21.1756L6.24547 21.3442V21.5971C6.16365 22.1873 6.16364 22.7775 6.08182 23.2833L6 25.391L7.3909 23.8735C7.55453 23.7048 7.71817 23.4519 7.96362 23.2833Z" fill="#181D27" data-darkreader-inline-fill="" style="--darkreader-inline-fill: #13171f;"></path>
<path d="M29.4817 39.6394C29.2363 39.555 29.0727 39.4707 28.8272 39.3864C25.9636 38.2904 23.0182 38.1218 20.3182 38.8806C19.7455 39.0492 19.1728 39.2178 18.6001 39.4707L16.6365 40.3981L16.1456 40.651L17.7819 41.2412C18.2728 41.4098 18.7637 41.5785 19.2546 41.7471L19.5001 41.8314L19.7455 41.7471C19.991 41.6628 20.2364 41.4941 20.4819 41.4941C20.6455 41.4941 20.8092 41.4098 20.9728 41.3255C22.9364 40.8197 25.0636 40.8197 27.3545 41.5785C27.5999 41.6628 27.7636 41.7471 28.009 41.8314L28.4181 42L28.6636 41.9157C29.2363 41.7471 29.8908 41.5785 30.3817 41.3255L32.6726 40.4824L30.2999 39.8923C30.0544 39.808 29.7272 39.7237 29.4817 39.6394Z" fill="#181D27" data-darkreader-inline-fill="" style="--darkreader-inline-fill: #d4d0cb;"></path>
<path d="M42 22.1874L40.7727 23.452C40.6091 23.6206 40.4455 23.7892 40.2819 23.9579C36.9274 27.2459 31.5275 30.7869 25.473 28.4262C22.6094 27.3302 19.664 27.1616 16.9641 27.9204C14.4278 28.6792 12.1369 30.0281 10.0915 32.0516L9.02785 33.2319L8.70059 33.6534L9.02785 34.1593C9.2733 34.4965 9.43695 34.7495 9.60058 35.0867L10.0915 35.8455L10.6642 35.0867C10.746 35.0024 10.9096 34.8337 10.9915 34.7494C12.9551 32.5574 15.0823 31.2084 17.5368 30.534C19.7458 29.9438 22.1185 30.0281 24.4912 30.9555C26.5366 31.7143 28.6639 31.9673 30.7911 31.7143C34.5547 31.2928 38.3183 29.1007 41.1 26.6558C41.2637 26.4871 41.4273 26.4028 41.5909 26.2342L41.8364 25.9813V25.7284C41.8364 25.2225 41.9182 24.6323 41.9182 24.1265L42 22.1874Z" fill="#181D27" data-darkreader-inline-fill="" style="--darkreader-inline-fill: #13171f;"></path>
<path d="M10.9084 14.4311C11.3993 14.1781 11.972 14.0095 12.4629 13.8409C14.6719 13.2507 17.0446 13.335 19.4173 14.2624C20.9718 14.8526 22.5264 15.1055 24.2445 15.1055C27.6808 15.1055 31.1171 13.8409 34.308 11.3959L35.9443 10.047L35.2079 9.45679C34.9625 9.20386 34.6352 8.95095 34.308 8.78233L33.8171 8.44509L33.408 8.78233C33.2443 8.86664 33.1625 9.03525 32.9989 9.11956C28.6626 12.4919 24.3263 13.4193 20.2355 11.8175C17.2901 10.7214 14.3447 10.4685 11.3993 11.3959C11.1538 11.4802 10.9084 11.5645 10.5811 11.6488L10.4175 11.7332L10.172 11.9861C10.172 12.0704 10.0902 12.0704 10.0084 12.1547C9.68113 12.6606 9.27203 13.0821 8.94476 13.588L7.39025 16.0329L9.92657 14.684C10.3357 14.684 10.6629 14.5154 10.9084 14.4311Z" fill="#181D27" data-darkreader-inline-fill="" style="--darkreader-inline-fill: #d4d0cb;"></path>
<path d="M17.618 8.69788L17.8634 8.7822C18.9271 9.20374 20.5634 9.62529 22.6088 9.62529C24.7361 9.62529 26.7815 9.11943 28.8269 8.27634L31.3632 7.0117L29.6451 6.42155C29.1542 6.25293 28.6632 6.08431 28.0905 6H27.8451L27.5996 6.08429C27.3542 6.1686 27.1087 6.33724 26.8633 6.42155C24.4088 7.34895 21.9543 7.51757 19.5816 6.84309C19.3361 6.75878 19.0907 6.67446 18.8452 6.59015L18.5998 6.50584L18.3543 6.59015C17.8634 6.75877 17.3725 6.9274 16.8816 7.18033L14.9998 8.02342L16.9635 8.61357C17.1271 8.52926 17.3725 8.61357 17.618 8.69788Z" fill="#181D27" data-darkreader-inline-fill="" style="--darkreader-inline-fill: #d4d0cb;"></path>
</svg><style>@media (prefers-color-scheme: light) { :root { filter: none; } }
@media (prefers-color-scheme: dark) { :root { filter: none; } }
</style></svg>